<svg xmlns="http://www.w3.org/2000/svg" width="17" height="14" viewBox="0 0 17 14" fill="none"><path d="M12.5584 7.02487C10.6303 7.02487 9.06812 8.58494 9.06812 10.5096C9.06812 12.4343 10.4978 13.8576 12.3092 13.9856C12.3899 14.018 15.2208 13.9856 15.3138 13.9856C15.7017 13.9856 16.0159 13.6718 16.0159 13.2844C16.0159 13.195 16.0637 10.2677 16.0329 10.1888C15.8706 8.41491 14.3769 7.02487 12.5584 7.02487Z" fill="#0098F8"/><path d="M9.76518 4.88643C9.76518 2.18704 7.58108 0 4.88654 0C2.192 0 0.19932 2.00151 0.0201754 4.53749C-0.0252244 4.65053 0.0201698 8.61374 0.0201698 8.74398C0.0201698 9.28705 0.459449 9.72692 1.00179 9.72692C1.12695 9.72692 5.2252 9.79376 5.33563 9.75075C7.81912 9.52345 9.76518 7.43225 9.76518 4.88643Z" fill="#FF6200"/><path d="M13.9291 5.06655C13.8352 5.24374 13.5813 5.24374 13.4874 5.06655L12.8347 3.83549C12.8113 3.7913 12.7751 3.75515 12.7309 3.73172L11.4999 3.07903C11.3227 2.98509 11.3227 2.73123 11.4999 2.63728L12.7309 1.9846C12.7751 1.96117 12.8113 1.92502 12.8347 1.88083L13.4874 0.649768C13.5813 0.472574 13.8352 0.472574 13.9291 0.649768L14.5818 1.88083C14.6052 1.92502 14.6414 1.96117 14.6856 1.9846L15.9166 2.63728C16.0938 2.73123 16.0938 2.98509 15.9166 3.07903L14.6856 3.73172C14.6414 3.75515 14.6052 3.7913 14.5818 3.83549L13.9291 5.06655Z" fill="#084A7E"/></svg>