<svg width="24" height="25" viewBox="0 0 24 25" fill="none" xmlns="http://www.w3.org/2000/svg"><path d="M11 8.91797C11 8.36568 11.4477 7.91797 12 7.91797C12.5523 7.91797 13 8.36568 13 8.91797C13 9.47025 12.5523 9.91797 12 9.91797C11.4477 9.91797 11 9.47025 11 8.91797Z" fill="#565959" stroke="#565959"/><path d="M11 12.918C11 12.3657 11.4477 11.918 12 11.918C12.5523 11.918 13 12.3657 13 12.918C13 13.4703 12.5523 13.918 12 13.918C11.4477 13.918 11 13.4703 11 12.918Z" fill="#565959" stroke="#565959"/><path d="M11 16.918C11 16.3657 11.4477 15.918 12 15.918C12.5523 15.918 13 16.3657 13 16.918C13 17.4703 12.5523 17.918 12 17.918C11.4477 17.918 11 17.4703 11 16.918Z" fill="#565959" stroke="#565959"/></svg>