<svg xmlns="http://www.w3.org/2000/svg" width="16" height="16" viewBox="0 0 16 16" fill="none"><path d="M4.5 7.5L9.88164 13.2061C10.0594 13.3943 10.3006 13.5 10.552 13.5C10.6765 13.5 10.7998 13.474 10.9148 13.4236C11.0298 13.3732 11.1343 13.2993 11.2223 13.2061C11.3104 13.1129 11.3802 13.0023 11.4278 12.8806C11.4755 12.7588 11.5 12.6284 11.5 12.4966C11.5 12.2305 11.4001 11.9753 11.2223 11.7871L7.1625 7.5L11.2223 3.21292C11.3104 3.11975 11.3802 3.00913 11.4278 2.88739C11.4755 2.76566 11.5 2.63518 11.5 2.50341C11.5 2.37164 11.4755 2.24116 11.4278 2.11942C11.3802 1.99768 11.3104 1.88707 11.2223 1.79389C11.1343 1.70072 11.0298 1.62681 10.9148 1.57638C10.7998 1.52595 10.6765 1.5 10.552 1.5C10.4275 1.5 10.3042 1.52595 10.1892 1.57638C10.0742 1.62681 9.96968 1.70072 9.88164 1.79389L4.5 7.5Z" fill="#888C8C"></path></svg>