<svg width="15" height="14" viewBox="0 0 15 14" fill="none" xmlns="http://www.w3.org/2000/svg"><path d="M4.53012 10.5672L4.53012 10.6412C4.53012 11.7458 5.42555 12.6412 6.53012 12.6412L9.08708 12.6412" stroke="#565959" stroke-width="1.5" stroke-linecap="round"/><path d="M8.78328 12.6412L11.3402 12.6412C12.4448 12.6412 13.3402 11.7458 13.3402 10.6412L13.3402 8.19678" stroke="#565959" stroke-width="1.5" stroke-linecap="round"/><path d="M13.3402 8.4931L13.3402 6.04865C13.3402 4.94408 12.4448 4.04865 11.3402 4.04865L10.3782 4.04865" stroke="#565959" stroke-width="1.5" stroke-linecap="round"/><path d="M0.75 5.00316L0.75 7.56012C0.75 8.66469 1.64543 9.56012 2.75 9.56012L5.19445 9.56012" stroke="#565959" stroke-width="1.5" stroke-linecap="round"/><path d="M5.19443 9.56012L7.63889 9.56012C8.74345 9.56012 9.63889 8.66469 9.63889 7.56012L9.63889 5.00316" stroke="#565959" stroke-width="1.5" stroke-linecap="round"/><path d="M5.19445 0.75H2.75C1.64543 0.75 0.75 1.64543 0.75 2.75V5.30696" stroke="#565959" stroke-width="1.5" stroke-linecap="round"/><path d="M9.63889 5.30696L9.63889 2.75C9.63889 1.64543 8.74346 0.75 7.63889 0.75L5.19443 0.75" stroke="#565959" stroke-width="1.5" stroke-linecap="round"/><path d="M7.0159 7.07935L2.84342 2.85726" stroke="#565959" stroke-linecap="round"/><path d="M4.28155 7.52392L7.47142 7.52393L7.47142 4.41281" stroke="#565959" stroke-linecap="round" stroke-linejoin="round"/></svg>