<svg width="16" height="16" viewBox="0 0 16 16" fill="none" xmlns="http://www.w3.org/2000/svg"><path d="M8 11L2.29389 5.61836C2.10572 5.44057 2 5.19944 2 4.94801C2 4.82352 2.02595 4.70024 2.07638 4.58522C2.12681 4.47021 2.20072 4.3657 2.29389 4.27767C2.38707 4.18964 2.49768 4.11981 2.61942 4.07216C2.74116 4.02452 2.87164 4 3.00341 4C3.26953 4 3.52475 4.09988 3.71292 4.27767L8 8.3375L12.2871 4.27767C12.3803 4.18964 12.4909 4.11981 12.6126 4.07216C12.7343 4.02452 12.8648 4 12.9966 4C13.1284 4 13.2588 4.02452 13.3806 4.07216C13.5023 4.11981 13.6129 4.18964 13.7061 4.27767C13.7993 4.3657 13.8732 4.47021 13.9236 4.58522C13.974 4.70024 14 4.82352 14 4.94801C14 5.07251 13.974 5.19578 13.9236 5.3108C13.8732 5.42582 13.7993 5.53033 13.7061 5.61836L8 11Z" fill="#888C8C"/></svg>