<svg width="131" height="18" viewBox="0 0 131 18" fill="none" xmlns="http://www.w3.org/2000/svg"><path d="M48.482 13.372C48.3055 12.909 48.0944 12.8364 47.8757 12.8928C47.5931 12.9665 47.3073 13.0034 47.0215 13.0034C46.2517 13.0034 45.6292 12.6911 45.2221 12.1012C45.8901 11.3075 46.4336 10.3554 46.7844 9.35024C47.0139 8.69313 47.1179 7.75626 46.7216 7.09373C46.5506 6.80855 46.3037 6.62638 46.0255 6.58301C45.9042 6.56349 45.7765 6.56999 45.6465 6.59927C45.0251 6.39975 44.1449 6.25337 43.0482 6.4171C42.1063 6.55807 41.1341 6.97771 40.3102 7.6012C39.3954 8.29192 38.7317 9.17457 38.3907 10.1516C38.3907 10.1548 38.3885 10.1592 38.3874 10.1624C38.2662 10.5061 37.9284 11.353 37.3394 12.0676C36.8273 12.6889 36.2947 13.0045 35.7566 13.0045C35.2185 13.0045 34.7865 12.8039 34.374 12.3918C33.9875 12.0058 33.6357 11.4322 33.3239 10.6818C33.4874 10.479 33.6454 10.2795 33.7981 10.0865C34.7995 8.82216 35.6656 7.73024 36.4246 7.67927C36.744 7.65759 37.006 7.77903 37.1868 7.90481C37.2019 7.91566 37.216 7.92542 37.2301 7.93626C37.3524 8.02843 37.6534 7.88963 37.8764 7.56758C38.0994 7.24554 38.1168 6.9365 37.9955 6.84975C37.5895 6.55698 37.0168 6.3065 36.3358 6.35204C35.6895 6.39542 35.0767 6.71204 34.4054 7.34963C33.8782 7.84951 33.3477 8.51638 32.7869 9.22337C32.6083 8.74626 32.409 8.2659 32.1784 7.84626C31.6869 6.95277 31.1196 6.46698 30.444 6.36289C29.7598 6.25771 29.1265 6.48758 28.5613 7.0471C28.1575 7.44722 27.771 8.02518 27.3087 8.92084L27.2264 9.08024C26.7165 10.0702 26.1893 11.0928 25.439 11.8301C24.6238 12.6314 23.6418 13.0045 22.3491 13.0045C22.072 13.0045 21.8078 12.9773 21.5588 12.9253C22.8482 12.0893 23.7934 11.0255 24.1571 9.99758C24.4137 9.27325 24.4267 8.54999 24.1939 7.9059C23.9092 7.11542 23.16 6.51578 22.2852 6.38024C21.6118 6.27505 20.7998 6.4312 20.1124 6.79771C19.5083 7.11975 18.6952 7.76277 18.2524 8.99349C18.0434 9.57361 17.9785 10.2123 18.064 10.8412C18.1495 11.4745 18.3877 12.0828 18.7504 12.6011C18.7829 12.6477 18.8164 12.6932 18.8511 12.7388C18.2621 12.9155 17.6732 13.0077 17.1091 13.0077C15.9832 13.0077 15.1679 12.6672 14.6169 11.9667C14.5909 11.9342 14.566 11.9017 14.5422 11.867C15.5891 10.4259 16.3329 8.58578 16.8839 7.00698C17.7111 4.63554 17.8507 2.71518 17.265 1.73819C16.9727 1.25024 16.5743 1.09518 16.2917 1.05072C15.1831 0.877223 13.7064 1.90518 12.89 5.31216C12.5512 6.72614 12.4007 8.09891 12.4559 9.28192C12.4992 10.2155 12.6659 11.031 12.9539 11.7217C12.1658 12.587 11.3289 13.0099 10.4119 13.0099C9.64211 13.0099 9.01851 12.6976 8.61143 12.1066C9.27943 11.314 9.82291 10.3608 10.1737 9.35566C10.4032 8.69963 10.5071 7.76168 10.1109 7.09915C9.93984 6.81397 9.693 6.6318 9.41476 6.58843C9.2935 6.56891 9.16791 6.57542 9.03908 6.60361C8.41764 6.40409 7.53637 6.25662 6.43857 6.42036C5.49667 6.56132 4.52445 6.98096 3.70056 7.60445C2.78572 8.29518 2.12206 9.17783 1.78103 10.1548C1.57857 10.7273 1.49196 11.2836 1.52336 11.8063C1.55692 12.3582 1.71932 12.844 2.00622 13.2506C2.50099 13.95 3.32596 14.3349 4.32958 14.3349C5.49991 14.3349 6.64319 13.8925 7.66087 13.05C8.31912 13.8806 9.28809 14.336 10.4119 14.336C11.7035 14.336 12.772 13.7689 13.662 12.8949C14.4675 13.8502 15.6259 14.3339 17.1091 14.3339C18.0488 14.3339 19.0362 14.1278 19.9944 13.7407C20.6634 14.1289 21.4635 14.3339 22.3491 14.3339C23.9893 14.3339 25.3047 13.8253 26.369 12.7789C27.2708 11.8919 27.8479 10.7729 28.4054 9.68963L28.4877 9.53024C29.3809 7.79963 29.8583 7.61638 30.2416 7.67493C30.4754 7.71072 30.7429 7.99156 31.0157 8.48602C31.3232 9.04554 31.5862 9.78939 31.8179 10.4487C31.7595 10.5257 31.701 10.6026 31.6436 10.6785C30.6238 12.0275 29.8865 13.0012 27.9875 13.0012H27.9486C27.7981 13.0012 27.5805 13.2745 27.5805 13.6659C27.5805 14.0573 27.7981 14.3306 27.9486 14.3306H27.9875C30.312 14.3306 31.4293 13.1346 32.409 11.8659C32.7144 12.4645 33.0554 12.9481 33.4365 13.3298C34.1012 13.9945 34.8818 14.3317 35.7577 14.3317C36.6974 14.3317 37.5982 13.8405 38.3647 12.9112C38.3766 12.8971 38.3874 12.883 38.3982 12.87C38.461 13.0023 38.5336 13.1281 38.618 13.2473C39.1128 13.9467 39.9378 14.3317 40.9414 14.3317C42.1117 14.3317 43.255 13.8893 44.2738 13.0467C44.932 13.8773 45.901 14.3317 47.0237 14.3317C47.4437 14.3317 47.8627 14.2742 48.2741 14.1614C48.5231 14.0931 48.6617 13.8329 48.4852 13.3699L48.482 13.372ZM7.11305 8.91108C6.76336 9.90542 6.74062 10.9388 7.02536 11.842C6.42233 12.3929 5.49017 13.0055 4.32958 13.0055C3.6107 13.0055 3.25884 12.7214 3.08995 12.4829C2.78356 12.0502 2.76299 11.3617 3.03365 10.5929C3.59554 8.98481 5.27039 7.93734 6.63453 7.73349C7.03294 7.67385 7.39238 7.66626 7.70959 7.69011C7.47791 8.0371 7.27653 8.45024 7.11414 8.91216H7.11305V8.91108ZM8.36567 9.3524C8.55838 8.80481 8.78033 8.44481 8.96654 8.21927C8.99469 8.18457 9.05207 8.20626 9.05099 8.25072C9.04666 8.42746 9.01201 8.64975 8.92215 8.90999C8.7511 9.39903 8.52158 9.88048 8.24875 10.3294C8.22601 10.3673 8.16647 10.3478 8.16972 10.3034C8.19137 9.98783 8.25633 9.66578 8.36676 9.35132H8.36567V9.3524ZM13.7811 9.21686C13.7323 8.15746 13.8698 6.91373 14.1806 5.61903C14.5487 4.08252 15.0174 3.27578 15.3455 2.86915C15.3682 2.84096 15.3899 2.81493 15.4126 2.78999C15.5967 2.56554 15.8868 2.36168 16.0438 2.38337C16.0979 2.39204 16.1423 2.43758 16.1813 2.53734C16.2831 2.84313 16.2928 3.09036 16.2917 3.45036C16.2809 4.03698 16.1564 5.05409 15.6291 6.56457C15.077 8.14771 14.5162 9.40771 13.9261 10.3858C13.8493 10.0301 13.8016 9.63975 13.7811 9.21686ZM20.1524 12.2053C20.0355 12.0925 19.9294 11.9689 19.8352 11.8334C19.348 11.1383 19.2192 10.222 19.5007 9.4424C19.8006 8.60963 20.3376 8.18132 20.736 7.96879C21.143 7.75192 21.5458 7.67493 21.85 7.67493C21.9345 7.67493 22.0124 7.68036 22.0795 7.6912C22.4758 7.75301 22.8233 8.01975 22.9435 8.35481C23.1037 8.79939 23.0106 9.25048 22.9045 9.55084C22.636 10.3099 21.8424 11.1665 20.7814 11.842C20.5757 11.9732 20.3657 12.0936 20.1535 12.2042L20.1524 12.2053ZM43.7227 8.90891C43.373 9.90433 43.3503 10.9377 43.635 11.841C43.032 12.3918 42.0998 13.0045 40.9381 13.0045C40.2192 13.0045 39.8674 12.7204 39.6985 12.4818C39.3943 12.0513 39.3726 11.3671 39.6379 10.6037C39.6379 10.6005 39.6411 10.5961 39.6422 10.5929C40.2041 8.98481 41.8789 7.93734 43.2431 7.73349C43.6415 7.67385 43.9998 7.66626 44.3171 7.69011C44.0865 8.0371 43.8851 8.44915 43.7227 8.91108V8.90891ZM44.9753 9.35132C45.168 8.80373 45.39 8.44373 45.5762 8.21819C45.6043 8.18349 45.6617 8.20518 45.6606 8.24963C45.6563 8.42746 45.6216 8.64867 45.5307 8.90999C45.3596 9.39903 45.1301 9.88048 44.8573 10.3305C44.8346 10.3684 44.775 10.3489 44.7783 10.3045C44.7999 9.98783 44.8649 9.66578 44.9753 9.35132Z" fill="url(#paint0_linear_24789_5573)"/><path d="M56.1297 4.38288C55.3144 4.38288 54.8889 4.89903 54.8889 5.90313V6.54722H56.9005V7.78987H54.8889V14.1246H53.4166V7.78987H51.9734V6.54722H53.4166V5.94108C53.4166 4.21915 54.4332 3.13373 55.9803 3.13373C56.6309 3.13373 57.2134 3.34301 57.5577 3.64987L57.1766 4.7277C56.7879 4.48047 56.4664 4.38288 56.1297 4.38288Z" fill="#565959"/><path d="M57.364 10.3359C57.364 7.89506 58.6426 6.33795 60.6607 6.33795C62.6787 6.33795 63.9497 7.90265 63.9497 10.3359C63.9497 12.7692 62.6787 14.3339 60.6607 14.3339C58.6426 14.3339 57.364 12.7767 57.364 10.3359ZM62.447 10.3359C62.447 8.60639 61.7888 7.62506 60.6607 7.62506C59.5326 7.62506 58.8667 8.61289 58.8667 10.3359C58.8667 12.0589 59.525 13.0467 60.6607 13.0467C61.7964 13.0467 62.447 12.0513 62.447 10.3359Z" fill="#565959"/><path d="M65.4004 6.54721H66.5296L66.7169 7.69987C67.098 6.83131 67.779 6.33685 68.5855 6.33685C69.3261 6.33685 69.9313 6.74131 70.2225 7.28782L69.6617 8.3136C69.273 7.86468 68.8389 7.63914 68.3538 7.63914C67.4791 7.63914 66.8739 8.38083 66.8739 9.89999V14.1235H65.4015V6.54721H65.4004Z" fill="#565959"/><path d="M73.2646 12.9188L74.0571 12.0578C74.7522 12.8364 75.4548 13.1584 76.2257 13.1584C77.1752 13.1584 77.7804 12.7247 77.7804 12.0654C77.7804 10.4107 73.4963 11.3769 73.4963 8.60639C73.4963 7.2141 74.5952 6.33795 76.2777 6.33795C77.5108 6.33795 78.4754 6.82482 79.1109 7.75301L78.2816 8.55434C77.736 7.85819 77.0701 7.49819 76.2701 7.49819C75.47 7.49819 74.88 7.90265 74.88 8.5088C74.88 10.119 79.1781 9.21253 79.1781 11.9754C79.1781 13.4057 78.0196 14.3339 76.2625 14.3339C75.0813 14.3339 74.0193 13.9066 73.2646 12.9188Z" fill="#565959"/><path d="M80.5835 3.34302H82.0559V7.52856C82.5193 6.77278 83.289 6.33796 84.2169 6.33796C85.6817 6.33796 86.7437 7.43856 86.7437 8.90567V14.1246H85.2713V9.19735C85.2713 8.20952 84.7484 7.64784 83.8509 7.64784C82.7748 7.64784 82.1393 8.49362 82.057 10.0063V14.1246H80.5846V3.34302H80.5835Z" fill="#565959"/><path d="M88.1414 10.3359C88.1414 7.89506 89.42 6.33795 91.438 6.33795C93.4561 6.33795 94.7271 7.90265 94.7271 10.3359C94.7271 12.7692 93.4561 14.3339 91.438 14.3339C89.42 14.3339 88.1414 12.7767 88.1414 10.3359ZM93.2255 10.3359C93.2255 8.60639 92.5672 7.62506 91.4391 7.62506C90.311 7.62506 89.6452 8.61289 89.6452 10.3359C89.6452 12.0589 90.3034 13.0467 91.4391 13.0467C92.5748 13.0467 93.2255 12.0513 93.2255 10.3359Z" fill="#565959"/><path d="M96.1777 6.54723H97.3069L97.4791 7.72265C97.9424 6.8541 98.7653 6.33795 99.7667 6.33795C101.545 6.33795 102.72 7.93301 102.72 10.3511C102.72 12.7692 101.547 14.3349 99.7667 14.3349C98.8475 14.3349 98.1146 13.9153 97.6512 13.1823V16.8213H96.1788V6.54723H96.1777ZM101.216 10.3511C101.216 8.63675 100.551 7.62614 99.4224 7.62614C98.2943 7.62614 97.6285 8.64434 97.6285 10.3511C97.6285 12.0578 98.2943 13.0467 99.4224 13.0467C100.551 13.0467 101.216 12.0361 101.216 10.3511Z" fill="#565959"/><path d="M104.17 6.54723H105.299L105.471 7.72265C105.935 6.8541 106.757 6.33795 107.759 6.33795C109.538 6.33795 110.712 7.93301 110.712 10.3511C110.712 12.7692 109.539 14.3349 107.759 14.3349C106.84 14.3349 106.107 13.9153 105.643 13.1823V16.8213H104.171V6.54723H104.17ZM109.209 10.3511C109.209 8.63675 108.543 7.62614 107.415 7.62614C106.286 7.62614 105.621 8.64434 105.621 10.3511C105.621 12.0578 106.286 13.0467 107.415 13.0467C108.543 13.0467 109.209 12.0361 109.209 10.3511Z" fill="#565959"/><path d="M111.952 4.44359C111.952 3.91986 112.348 3.54468 112.901 3.54468C113.455 3.54468 113.843 3.92636 113.843 4.44359C113.843 4.96082 113.447 5.33492 112.901 5.33492C112.356 5.33492 111.952 4.95323 111.952 4.44359ZM112.161 6.54721H113.633V14.1246H112.161V6.54721Z" fill="#565959"/><path d="M115.444 6.54723H116.573L116.745 7.73783C117.216 6.86169 118.068 6.33795 119.092 6.33795C120.55 6.33795 121.611 7.43855 121.611 8.90566V14.1246H120.139V9.19735C120.139 8.20952 119.624 7.64783 118.719 7.64783C117.56 7.64783 116.917 8.62157 116.917 10.3283V14.1246H115.445V6.54723H115.444Z" fill="#565959"/><path d="M123.218 15.6372L123.995 14.6938C124.548 15.4128 125.274 15.7641 126.201 15.7641C127.382 15.7641 128.069 15.0148 128.069 13.8394V12.9936C127.613 13.6973 126.873 14.1094 125.961 14.1094C124.182 14.1094 123.015 12.5816 123.015 10.2459C123.015 7.91023 124.189 6.33685 125.961 6.33685C126.963 6.33685 127.793 6.83131 128.249 7.67709L128.413 6.54613H129.543V13.8318C129.543 15.7858 128.317 17.0295 126.223 17.0295C124.862 17.0295 123.869 16.5275 123.218 15.6372ZM128.092 10.2611C128.092 8.55432 127.426 7.62505 126.306 7.62505C125.185 7.62505 124.512 8.56083 124.512 10.2459C124.512 11.9309 125.177 12.8591 126.306 12.8591C127.434 12.8591 128.092 11.9309 128.092 10.2611Z" fill="#565959"/><defs><linearGradient id="paint0_linear_24789_5573" x1="-6.14826" y1="14.8218" x2="61.3694" y2="2.11923" gradientUnits="userSpaceOnUse"><stop stop-color="#0ABEFF"/><stop offset="1" stop-color="#004EFF"/></linearGradient></defs></svg>