<svg width="14" height="14" viewBox="0 0 14 14" fill="none" xmlns="http://www.w3.org/2000/svg"><path d="M2.82408 3.93988H2.75C1.64543 3.93988 0.75 4.83531 0.75 5.93988V8.49684" stroke="#565959" stroke-width="1.5" stroke-linecap="round"/><path d="M0.75 8.19304L0.75 10.75C0.75 11.8546 1.64543 12.75 2.75 12.75L5.19445 12.75" stroke="#565959" stroke-width="1.5" stroke-linecap="round"/><path d="M4.89814 12.75L7.34259 12.75C8.44716 12.75 9.34259 11.8546 9.34259 10.75L9.34259 9.78797" stroke="#565959" stroke-width="1.5" stroke-linecap="round"/><path d="M3.86111 5.00316L3.86111 7.56012C3.86111 8.66469 4.75654 9.56012 5.86111 9.56012L8.30557 9.56012" stroke="#565959" stroke-width="1.5" stroke-linecap="round"/><path d="M8.30555 9.56012L10.75 9.56012C11.8546 9.56012 12.75 8.66469 12.75 7.56012L12.75 5.00316" stroke="#565959" stroke-width="1.5" stroke-linecap="round"/><path d="M8.30557 0.75H5.86111C4.75655 0.75 3.86111 1.64543 3.86111 2.75V5.30696" stroke="#565959" stroke-width="1.5" stroke-linecap="round"/><path d="M12.75 5.30696L12.75 2.75C12.75 1.64543 11.8546 0.75 10.75 0.75L8.30555 0.75" stroke="#565959" stroke-width="1.5" stroke-linecap="round"/><path d="M6.37979 7.04907L10.6019 2.87659" stroke="#565959" stroke-linecap="round"/><path d="M5.93521 4.31472L5.93521 7.50459L9.04633 7.50459" stroke="#565959" stroke-linecap="round" stroke-linejoin="round"/></svg>