<svg width="16" height="16" viewBox="0 0 16 16" fill="none" xmlns="http://www.w3.org/2000/svg"><path d="M12.9948 10.9962C12.8633 10.9969 12.7329 10.9731 12.6112 10.9261C12.4895 10.8791 12.3787 10.8099 12.2854 10.7224L7.9989 6.66253L3.71244 10.7224C3.52429 10.9002 3.2691 11 3.00302 11C2.73694 11 2.48175 10.9002 2.29361 10.7224C2.10546 10.5446 1.99976 10.3034 1.99976 10.052C1.99976 9.80059 2.10546 9.55946 2.29361 9.38167L7.9989 4.00003L13.7042 9.38167C13.7979 9.46945 13.8722 9.57387 13.9229 9.68892C13.9736 9.80398 13.9998 9.92738 13.9998 10.052C13.9998 10.1767 13.9736 10.3001 13.9229 10.4151C13.8722 10.5302 13.7979 10.6346 13.7042 10.7224C13.6108 10.8099 13.5001 10.8791 13.3784 10.9261C13.2566 10.9731 13.1263 10.9969 12.9948 10.9962Z" fill="#888C8C"/></svg>