<svg xmlns="http://www.w3.org/2000/svg" viewBox="0 0 16 16" width="16" height="16">
  <g fill="#555">
    <rect x="6.5" y="1" width="3" height="3"/>
    <rect x="6.5" y="1" width="3" height="3" transform="rotate(45 8 8)"/>
    <rect x="6.5" y="1" width="3" height="3" transform="rotate(90 8 8)"/>
    <rect x="6.5" y="1" width="3" height="3" transform="rotate(135 8 8)"/>
    <rect x="6.5" y="1" width="3" height="3" transform="rotate(180 8 8)"/>
    <rect x="6.5" y="1" width="3" height="3" transform="rotate(225 8 8)"/>
    <rect x="6.5" y="1" width="3" height="3" transform="rotate(270 8 8)"/>
    <rect x="6.5" y="1" width="3" height="3" transform="rotate(315 8 8)"/>
  </g>
  <circle cx="8" cy="8" r="4" fill="#d4d0c8" stroke="#555" stroke-width="1.2"/>
  <circle cx="8" cy="8" r="2" fill="#8a8a8a" stroke="#444" stroke-width="0.8"/>
</svg>
